<?xml version="1.0" encoding="UTF-8" standalone="no"?>
<svg
   id="Layer_1"
   data-name="Layer 1"
   viewBox="0 0 111.87 122.88"
   version="1.1"
   sodipodi:docname="PageFileManager-Dark.svg"
   inkscape:version="1.3.2 (091e20e, 2023-11-25, custom)"
   xmlns:inkscape="http://www.inkscape.org/namespaces/inkscape"
   xmlns:sodipodi="http://sodipodi.sourceforge.net/DTD/sodipodi-0.dtd"
   xmlns="http://www.w3.org/2000/svg"
   xmlns:svg="http://www.w3.org/2000/svg"
   xmlns:rdf="http://www.w3.org/1999/02/22-rdf-syntax-ns#"
   xmlns:cc="http://creativecommons.org/ns#"
   xmlns:dc="http://purl.org/dc/elements/1.1/">
   <defs
      id="defs1" />
   <sodipodi:namedview
      id="namedview1"
      pagecolor="#ffffff"
      bordercolor="#000000"
      borderopacity="0.25"
      inkscape:showpageshadow="2"
      inkscape:pageopacity="0.0"
      inkscape:pagecheckerboard="0"
      inkscape:deskcolor="#d1d1d1"
      inkscape:zoom="7.3160809"
      inkscape:cx="55.904248"
      inkscape:cy="61.439999"
      inkscape:window-width="1920"
      inkscape:window-height="1137"
      inkscape:window-x="-8"
      inkscape:window-y="-8"
      inkscape:window-maximized="1"
      inkscape:current-layer="Layer_1" />
   <title
      id="title1">file-setting</title>
   <path
      d="M59.49,11.47,79.08,29.82H59.49V11.47ZM20.72,69.38a2.12,2.12,0,0,0-2,2.21,2.08,2.08,0,0,0,2,2.21H45.3V69.38Zm0,15.83a2.12,2.12,0,0,0-2,2.21,2.08,2.08,0,0,0,2,2.21H45.3V85.21Zm0-47.5a2.12,2.12,0,0,0-2,2.21,2.09,2.09,0,0,0,2,2.21H43.45a2.12,2.12,0,0,0,2-2.21,2.1,2.1,0,0,0-2-2.21Zm0-15.83a2.12,2.12,0,0,0-2,2.21,2.08,2.08,0,0,0,2,2.21h12.5a2.12,2.12,0,0,0,2-2.21,2.09,2.09,0,0,0-2-2.21Zm0,31.67a2.12,2.12,0,0,0-2,2.21,2.1,2.1,0,0,0,2,2.21H59.16a2.13,2.13,0,0,0,2-2.21,2.09,2.09,0,0,0-2-2.21Zm36.05,60V75.07a9.34,9.34,0,0,1,9.31-9.31h36.5a9.34,9.34,0,0,1,9.31,9.31v38.5a9.34,9.34,0,0,1-9.31,9.31H66.06a9.34,9.34,0,0,1-9.31-9.31ZM95.14,81.74a1.61,1.61,0,0,0-2.29,0L91.1,83.49a12.53,12.53,0,0,0-1.49-.81A16.06,16.06,0,0,0,88,82.07V79.38a1.55,1.55,0,0,0-.47-1.14,1.52,1.52,0,0,0-1.15-.47H83.05a1.54,1.54,0,0,0-1.13.47,1.53,1.53,0,0,0-.48,1.14v2.46a12.48,12.48,0,0,0-1.64.5,12.93,12.93,0,0,0-1.5.7l-1.94-1.91a1.48,1.48,0,0,0-1.12-.49,1.61,1.61,0,0,0-1.15.49l-2.35,2.36a1.55,1.55,0,0,0-.49,1.15,1.53,1.53,0,0,0,.49,1.14l1.74,1.75A12.53,12.53,0,0,0,72.67,89c-.23.52-.44,1-.62,1.58H69.37a1.6,1.6,0,0,0-1.61,1.62v3.37a1.61,1.61,0,0,0,.46,1.13,1.56,1.56,0,0,0,1.15.48h2.46a12.81,12.81,0,0,0,.5,1.63,16.48,16.48,0,0,0,.7,1.54l-1.91,1.9a1.51,1.51,0,0,0-.49,1.12,1.57,1.57,0,0,0,.49,1.15l2.36,2.39a1.68,1.68,0,0,0,2.29,0l1.75-1.78A11.24,11.24,0,0,0,79,106a16.15,16.15,0,0,0,1.58.62v2.68a1.59,1.59,0,0,0,.47,1.15,1.58,1.58,0,0,0,1.15.47h3.36a1.62,1.62,0,0,0,1.14-.47,1.56,1.56,0,0,0,.48-1.15V106.8a11.38,11.38,0,0,0,1.63-.5,16.41,16.41,0,0,0,1.54-.69l1.9,1.9a1.56,1.56,0,0,0,2.27,0l2.39-2.36a1.68,1.68,0,0,0,0-2.29l-1.78-1.75A11.24,11.24,0,0,0,96,99.62,16.71,16.71,0,0,0,96.57,98h2.68a1.59,1.59,0,0,0,1.15-.47,1.55,1.55,0,0,0,.46-1.15V93.06a1.6,1.6,0,0,0-1.61-1.61H96.79a14.34,14.34,0,0,0-.5-1.62,11.15,11.15,0,0,0-.7-1.52l1.91-1.94A1.48,1.48,0,0,0,98,85.25a1.57,1.57,0,0,0-.49-1.15l-2.36-2.36Zm-10.83,6a6.55,6.55,0,0,1,2.57.51,6.47,6.47,0,0,1,3.51,3.51,6.73,6.73,0,0,1,0,5.14A7,7,0,0,1,89,99a6.82,6.82,0,0,1-2.11,1.4,6.73,6.73,0,0,1-5.14,0,6.66,6.66,0,0,1-2.1-1.4,6.85,6.85,0,0,1-1.41-2.11,6.73,6.73,0,0,1,0-5.14,6.56,6.56,0,0,1,3.51-3.51,6.58,6.58,0,0,1,2.57-.51ZM90,32.45a3.26,3.26,0,0,0-2.37-3.14L58.74,1.2A3.21,3.21,0,0,0,56.23,0H5.87A5.86,5.86,0,0,0,0,5.86V106.25a5.84,5.84,0,0,0,1.72,4.15,5.91,5.91,0,0,0,4.15,1.71H45.39v-6.55H6.55v-99H52.94V33.08a3.29,3.29,0,0,0,3.29,3.29h27.2V57.82H90V32.45Z"
      id="path1" />
   <path
      style="fill:#ffffff;stroke-width:0.136685"
      d="m 65.02377,122.72884 c -2.091872,-0.24319 -3.854235,-1.10584 -5.417444,-2.65176 -1.119053,-1.10667 -1.845809,-2.27857 -2.372895,-3.82632 l -0.372387,-1.09348 V 94.449475 c 0,-19.593876 0.01336,-20.755601 0.248306,-21.596262 0.767962,-2.747813 2.562544,-4.900924 5.082417,-6.0978 1.954586,-0.928378 0.554055,-0.873145 22.140297,-0.873145 19.215646,0 19.571476,0.0048 20.553156,0.276828 2.65188,0.734875 4.73069,2.436224 5.95328,4.872316 1.03793,2.068144 0.97,0.432845 0.97,23.34972 0,19.457518 -0.0128,20.548078 -0.25028,21.391238 -0.70103,2.4886 -2.31639,4.58944 -4.4919,5.8419 -0.89694,0.51638 -2.41628,0.9874 -3.63573,1.12712 -1.46178,0.1675 -36.957866,0.15589 -38.40682,-0.0125 z m 21.386726,-12.00702 c 0.661958,-0.40363 0.788045,-0.75142 0.863006,-2.38052 l 0.06834,-1.48525 0.751768,-0.23542 c 0.413473,-0.12947 1.074049,-0.37566 1.467947,-0.54707 l 0.71618,-0.31166 1.151872,1.09035 c 1.83371,1.73576 2.211818,1.68816 4.427196,-0.55725 l 1.531399,-1.55216 v -0.72111 c 0,-0.7144 -0.01,-0.73146 -1.070406,-1.83207 l -1.070408,-1.11095 0.442608,-0.72445 c 0.243434,-0.398439 0.552233,-1.090408 0.686219,-1.537704 l 0.243611,-0.813266 h 1.652285 c 2.516177,0 2.669907,-0.184814 2.669907,-3.209704 0,-3.123592 -0.17344,-3.351185 -2.553822,-3.351185 H 96.852 l -0.154417,-0.580912 c -0.08493,-0.319502 -0.341493,-1.032657 -0.57014,-1.58479 l -0.415721,-1.003879 1.028064,-1.046399 c 1.889193,-1.922888 1.860195,-2.198988 -0.471326,-4.48753 -2.023022,-1.985731 -2.475919,-2.027018 -4.197092,-0.382619 -1.05273,1.005772 -1.061922,1.010925 -1.391093,0.779895 -0.182248,-0.127912 -0.823426,-0.430905 -1.424841,-0.673317 l -1.093481,-0.44075 -0.06985,-1.61154 c -0.112338,-2.591861 -0.169715,-2.63668 -3.375538,-2.63668 h -2.359422 l -0.446382,0.398638 c -0.445895,0.398202 -0.446459,0.400378 -0.514727,1.986331 l -0.06834,1.587691 -1.093482,0.380585 c -0.601415,0.209322 -1.278007,0.479196 -1.503537,0.599719 l -0.410056,0.219132 -1.178394,-1.150853 c -1.176886,-1.14938 -1.17932,-1.150853 -1.90041,-1.150853 H 74.5198 l -1.548195,1.527487 c -2.246833,2.216778 -2.306382,2.614617 -0.650755,4.347542 l 1.010457,1.057635 -0.449404,0.873423 c -0.247172,0.480382 -0.549699,1.134833 -0.67228,1.454335 l -0.222874,0.580912 h -1.459706 c -2.61551,0 -2.799527,0.229145 -2.799527,3.486059 v 2.282057 l 0.46473,0.464729 0.464729,0.46473 h 1.570337 1.570337 l 0.08578,0.444227 c 0.04718,0.244325 0.297331,0.965833 0.555891,1.603352 l 0.47011,1.159122 -1.155762,1.1811 c -1.124389,1.14903 -1.155764,1.19885 -1.155764,1.83528 0,0.65155 0.0064,0.66071 1.59739,2.2715 2.201237,2.22869 2.544586,2.27544 4.283456,0.58327 l 1.047346,-1.01922 0.748491,0.45071 c 0.41167,0.2479 1.097881,0.56948 1.524914,0.71463 l 0.776423,0.26392 v 1.6209 c 0,0.8915 0.06543,1.74317 0.145408,1.8926 0.07998,0.14944 0.341385,0.3912 0.580913,0.53725 0.381774,0.23278 0.696882,0.26554 2.554124,0.26554 1.857242,0 2.17235,-0.0328 2.554124,-0.26554 z"
      id="path2" />
   <path
      style="fill:#ffffff;stroke-width:0.136685"
      d="m 82.935477,100.66672 c -1.71911,-0.37349 -3.391845,-1.595309 -4.247316,-3.102377 -1.172024,-2.064734 -1.131794,-4.732177 0.100328,-6.652272 2.375421,-3.701774 7.432655,-4.153474 10.351465,-0.924568 3.317974,3.670477 1.373331,9.659068 -3.469796,10.685347 -1.118955,0.23711 -1.620263,0.23599 -2.734681,-0.006 z"
      id="path3" />
   <path
      style="fill:#ffffff;stroke-width:0.136685"
      d="M 4.6416309,111.89121 C 2.4604239,111.36129 0.83572466,109.77657 0.27786858,107.63482 0.09144325,106.91908 0.0683426,101.23076 0.0683426,56.040933 0.0683426,-0.06719621 -0.00473822,4.4491437 0.92841275,2.8892401 1.8357353,1.3725126 3.414328,0.3849 5.3350225,0.13233965 6.0700712,0.03568493 14.623644,0.00199776 31.642624,0.02873051 l 25.21842,0.03961209 0.615084,0.29494634 c 0.44488,0.21332997 4.681054,4.25488576 15.308742,14.60542906 10.315409,10.046406 14.881812,14.406045 15.32511,14.631193 0.693707,0.352329 1.291373,0.982686 1.576226,1.662439 0.150273,0.358604 0.184315,2.851466 0.184315,13.497664 V 57.817841 H 86.658419 83.446316 V 47.09117 36.3645 L 69.470254,36.32721 55.494192,36.289921 54.827907,35.949646 C 54.461449,35.762494 53.982994,35.393444 53.764671,35.129535 52.943066,34.136376 52.965516,34.563332 52.965516,19.931231 V 6.5608897 H 29.729032 6.4925471 V 56.109276 105.65766 H 25.901846 45.311145 v 3.2121 3.21211 l -19.990211,-0.0116 C 10.04796,112.06136 5.1681128,112.01911 4.6416309,111.89121 Z M 79.07239,29.814864 c 0,-0.152399 -19.398497,-18.333307 -19.561103,-18.333307 -0.06976,0 -0.121566,3.931475 -0.121566,9.226251 v 9.226251 h 9.841334 c 5.507059,0 9.841335,-0.0525 9.841335,-0.119195 z"
      id="path4" />
   <path
      style="fill:#ffffff;stroke-width:0.136685"
      d="m 20.161138,41.945483 c -1.576562,-0.628661 -1.837163,-2.714909 -0.46944,-3.758122 l 0.516432,-0.393902 h 11.83391 c 11.656253,0 11.841019,0.0042 12.307472,0.278207 1.422873,0.835906 1.311056,3.086735 -0.187144,3.767144 -0.531928,0.241576 -1.134629,0.253947 -12.109688,0.248567 -7.340952,-0.0036 -11.674399,-0.05531 -11.891542,-0.141894 z"
      id="path5" />
   <path
      style="fill:#ffffff;stroke-width:0.136685"
      d="m 19.855032,25.961655 c -1.335323,-0.705 -1.402704,-2.786818 -0.117978,-3.645071 l 0.46444,-0.310266 h 6.793834 6.793832 l 0.461214,0.310812 c 0.592458,0.399256 1.018721,1.37767 0.892749,2.049154 -0.126025,0.671772 -0.618935,1.356189 -1.179574,1.637863 -0.433622,0.217859 -1.055698,0.238472 -7.036564,0.233159 -6.262261,-0.0056 -6.584152,-0.01811 -7.071953,-0.275651 z"
      id="path6" />
   <path
      style="fill:#ffffff;stroke-width:0.136685"
      d="m 20.327009,57.858337 c -0.519222,-0.10103 -1.359657,-1.005703 -1.467291,-1.579443 -0.202467,-1.079243 0.317989,-2.119757 1.256406,-2.511852 0.369867,-0.154541 3.762228,-0.185929 19.825736,-0.183441 18.814696,0.0029 19.396367,0.01065 19.957606,0.265424 0.768649,0.348926 1.129307,0.954545 1.129966,1.897448 6.03e-4,0.861212 -0.24342,1.337161 -0.925047,1.804246 l -0.489553,0.335464 -19.487683,0.01648 c -10.718226,0.0091 -19.628289,-0.01088 -19.80014,-0.04432 z"
      id="path7" />
   <path
      style="fill:#ffffff;stroke-width:0.136685"
      d="m 19.737054,73.363058 c -1.271057,-0.849121 -1.242434,-2.608949 0.05811,-3.572694 0.384039,-0.284586 0.444982,-0.28611 12.88258,-0.322222 l 12.496716,-0.03628 v 2.120733 2.120733 H 32.687976 20.201494 Z"
      id="path8" />
   <path
      style="fill:#ffffff;stroke-width:0.136685"
      d="m 19.737054,89.218542 c -1.290821,-0.862325 -1.206316,-2.952624 0.14851,-3.673547 0.453702,-0.241422 1.064055,-0.253428 12.882581,-0.253428 H 45.17446 v 2.11862 2.118621 H 32.687976 20.201494 Z"
      id="path9" />
   <metadata
      id="metadata9">
      <rdf:RDF>
         <cc:Work
            rdf:about="">
            <dc:title>file-setting</dc:title>
         </cc:Work>
      </rdf:RDF>
   </metadata>
</svg>